# Blender v2.79 (sub 0) OBJ File: ''
# www.blender.org
mtllib pallet2.mtl
o pallet
v -0.008456 0.853507 -0.140795
v -0.008456 0.853507 -0.321121
v -0.008456 0.798980 -0.140795
v -0.008456 0.798980 -0.321121
v -0.132968 0.759580 -0.026765
v -0.024192 0.759580 -0.026765
v -0.132968 0.659613 -0.026765
v -0.024192 0.659613 -0.026765
v -0.441056 0.707227 -0.243212
v -0.441056 0.707227 -0.423537
v -0.441056 0.652699 -0.243212
v -0.441056 0.652700 -0.423537
v -0.441206 0.983281 -0.052771
v -0.441206 0.983281 -0.176524
v -0.441206 0.883315 -0.052771
v -0.441206 0.883315 -0.176524
v -0.441289 0.927679 -0.197558
v -0.441289 1.005314 -0.197558
v -0.441289 0.927679 -0.268274
v -0.441289 1.005314 -0.268274
v -0.009295 0.922099 -0.197558
v -0.009295 1.005314 -0.197558
v -0.009295 0.922099 -0.268274
v -0.009295 1.005314 -0.268274
v -0.424635 0.752825 -0.447148
v -0.315859 0.752825 -0.447148
v -0.424635 0.652859 -0.447148
v -0.315859 0.652859 -0.447148
v -0.439502 0.629113 -0.028559
v -0.439502 1.001714 -0.028559
v -0.439502 0.629113 -0.445782
v -0.439502 1.001714 -0.445782
v -0.010615 0.629113 -0.028559
v -0.010615 1.001714 -0.028559
v -0.010615 0.629113 -0.445782
v -0.010615 1.001714 -0.445782
v -0.439502 1.001714 -0.445782
v -0.439502 0.629113 -0.445782
v -0.010615 1.001714 -0.445782
v -0.010615 0.629113 -0.445782
v -0.439596 1.001664 -0.239465
v -0.010709 1.001664 -0.239465
v -0.439596 1.001664 -0.444541
v -0.010709 1.001664 -0.444541
v -0.437932 1.002213 -0.029276
v -0.009045 1.002213 -0.029276
v -0.437932 1.002213 -0.234351
v -0.009045 1.002213 -0.234351
v 0.465113 0.847091 -0.134327
v 0.465113 0.847091 -0.314653
v 0.465113 0.792564 -0.134327
v 0.465113 0.792564 -0.314653
v 0.340601 0.753164 -0.020297
v 0.449376 0.753164 -0.020297
v 0.340601 0.653197 -0.020297
v 0.449376 0.653197 -0.020297
v 0.032513 0.700810 -0.236744
v 0.032513 0.700811 -0.417069
v 0.032513 0.646284 -0.236744
v 0.032513 0.646284 -0.417069
v 0.032363 0.976866 -0.046303
v 0.032363 0.976866 -0.170056
v 0.032363 0.876899 -0.046303
v 0.032363 0.876899 -0.170056
v 0.032279 0.921264 -0.191090
v 0.032279 0.998898 -0.191090
v 0.032279 0.921264 -0.261806
v 0.032279 0.998898 -0.261806
v 0.464274 0.915682 -0.191090
v 0.464274 0.998898 -0.191090
v 0.464274 0.915682 -0.261806
v 0.464274 0.998898 -0.261806
v 0.048934 0.746409 -0.440680
v 0.157710 0.746409 -0.440680
v 0.048934 0.646443 -0.440680
v 0.157710 0.646443 -0.440680
v 0.034067 0.622697 -0.022091
v 0.034067 0.995298 -0.022091
v 0.034067 0.622697 -0.439314
v 0.034067 0.995298 -0.439314
v 0.462953 0.622697 -0.022091
v 0.462953 0.995298 -0.022091
v 0.462953 0.622697 -0.439314
v 0.462953 0.995298 -0.439314
v 0.034067 0.995298 -0.439314
v 0.034067 0.622697 -0.439314
v 0.462953 0.995298 -0.439314
v 0.462953 0.622697 -0.439314
v 0.033973 0.995248 -0.232997
v 0.462859 0.995248 -0.232997
v 0.033973 0.995248 -0.438073
v 0.462859 0.995248 -0.438073
v 0.035637 0.995797 -0.022808
v 0.464523 0.995797 -0.022808
v 0.035637 0.995797 -0.227883
v 0.464523 0.995797 -0.227883
v 0.467672 0.841752 0.347906
v 0.467672 0.841752 0.167581
v 0.467672 0.787225 0.347906
v 0.467672 0.787225 0.167581
v 0.343161 0.747824 0.461937
v 0.451936 0.747824 0.461937
v 0.343161 0.647858 0.461937
v 0.451936 0.647858 0.461937
v 0.035073 0.695471 0.245490
v 0.035073 0.695471 0.065165
v 0.035073 0.640944 0.245490
v 0.035073 0.640944 0.065165
v 0.034923 0.971526 0.435931
v 0.034923 0.971526 0.312178
v 0.034923 0.871560 0.435931
v 0.034923 0.871560 0.312178
v 0.034839 0.915924 0.291143
v 0.034839 0.993559 0.291143
v 0.034839 0.915924 0.220427
v 0.034839 0.993559 0.220427
v 0.466834 0.910343 0.291143
v 0.466834 0.993559 0.291143
v 0.466834 0.910343 0.220427
v 0.466834 0.993559 0.220427
v 0.051494 0.741070 0.041554
v 0.160270 0.741070 0.041554
v 0.051494 0.641104 0.041554
v 0.160270 0.641104 0.041554
v 0.036627 0.617357 0.460143
v 0.036627 0.989958 0.460143
v 0.036627 0.617357 0.042919
v 0.036627 0.989958 0.042920
v 0.465513 0.617357 0.460143
v 0.465513 0.989958 0.460143
v 0.465513 0.617357 0.042919
v 0.465513 0.989958 0.042920
v 0.036627 0.989958 0.042920
v 0.036627 0.617357 0.042919
v 0.465513 0.989958 0.042920
v 0.465513 0.617357 0.042919
v 0.036533 0.989908 0.249237
v 0.465419 0.989908 0.249237
v 0.036533 0.989908 0.044161
v 0.465419 0.989908 0.044161
v 0.038197 0.990458 0.459426
v 0.467083 0.990458 0.459426
v 0.038197 0.990458 0.254350
v 0.467083 0.990458 0.254350
v -0.005896 0.848168 0.341438
v -0.005896 0.848168 0.161113
v -0.005896 0.793641 0.341438
v -0.005896 0.793641 0.161113
v -0.130408 0.754240 0.455469
v -0.021632 0.754240 0.455469
v -0.130408 0.654274 0.455469
v -0.021632 0.654274 0.455469
v -0.438496 0.701887 0.239022
v -0.438496 0.701887 0.058697
v -0.438496 0.647360 0.239022
v -0.438496 0.647360 0.058697
v -0.438646 0.977942 0.429463
v -0.438646 0.977942 0.305710
v -0.438646 0.877976 0.429463
v -0.438646 0.877976 0.305710
v -0.438729 0.922340 0.284675
v -0.438729 0.999975 0.284675
v -0.438729 0.922340 0.213959
v -0.438729 0.999975 0.213959
v -0.006735 0.916759 0.284675
v -0.006735 0.999975 0.284675
v -0.006735 0.916759 0.213959
v -0.006735 0.999975 0.213959
v -0.422075 0.747486 0.035086
v -0.313299 0.747486 0.035086
v -0.422075 0.647520 0.035086
v -0.313299 0.647520 0.035086
v -0.436942 0.623773 0.453675
v -0.436942 0.996374 0.453675
v -0.436942 0.623773 0.036451
v -0.436942 0.996374 0.036452
v -0.008055 0.623773 0.453675
v -0.008055 0.996374 0.453675
v -0.008055 0.623773 0.036451
v -0.008055 0.996374 0.036452
v -0.436942 0.996374 0.036452
v -0.436942 0.623773 0.036451
v -0.008055 0.996374 0.036452
v -0.008055 0.623773 0.036451
v -0.437036 0.996325 0.242769
v -0.008149 0.996325 0.242769
v -0.437036 0.996325 0.037693
v -0.008149 0.996325 0.037693
v -0.435372 0.996874 0.452958
v -0.006485 0.996874 0.452958
v -0.435372 0.996874 0.247882
v -0.006485 0.996874 0.247882
v -0.008009 0.472560 0.340951
v -0.008009 0.472560 0.160626
v -0.008009 0.418033 0.340951
v -0.008009 0.418033 0.160626
v -0.132520 0.378632 0.454982
v -0.023745 0.378632 0.454982
v -0.132520 0.278666 0.454982
v -0.023745 0.278666 0.454982
v -0.440609 0.326279 0.238535
v -0.440609 0.326279 0.058210
v -0.440609 0.271752 0.238535
v -0.440609 0.271752 0.058210
v -0.440758 0.602334 0.428976
v -0.440758 0.602334 0.305223
v -0.440758 0.502368 0.428976
v -0.440758 0.502368 0.305223
v -0.440842 0.546733 0.284188
v -0.440842 0.624367 0.284188
v -0.440842 0.546733 0.213473
v -0.440842 0.624367 0.213473
v -0.008847 0.541151 0.284188
v -0.008847 0.624367 0.284188
v -0.008847 0.541151 0.213473
v -0.008847 0.624367 0.213473
v -0.424187 0.371878 0.034599
v -0.315411 0.371878 0.034599
v -0.424187 0.271912 0.034599
v -0.315411 0.271912 0.034599
v -0.439054 0.248165 0.453188
v -0.439054 0.620767 0.453188
v -0.439054 0.248166 0.035965
v -0.439054 0.620767 0.035965
v -0.010168 0.248165 0.453188
v -0.010168 0.620767 0.453188
v -0.010168 0.248166 0.035965
v -0.010168 0.620767 0.035965
v -0.439054 0.620767 0.035965
v -0.439054 0.248166 0.035965
v -0.010168 0.620767 0.035965
v -0.010168 0.248166 0.035965
v -0.439148 0.620717 0.242282
v -0.010262 0.620717 0.242282
v -0.439148 0.620717 0.037206
v -0.010262 0.620717 0.037206
v -0.437484 0.621266 0.452471
v -0.008598 0.621266 0.452471
v -0.437484 0.621266 0.247395
v -0.008598 0.621266 0.247395
v 0.465560 0.466143 0.347419
v 0.465560 0.466143 0.167094
v 0.465560 0.411616 0.347419
v 0.465560 0.411617 0.167094
v 0.341048 0.372216 0.461450
v 0.449824 0.372216 0.461450
v 0.341048 0.272250 0.461450
v 0.449824 0.272250 0.461450
v 0.032960 0.319863 0.245003
v 0.032960 0.319863 0.064678
v 0.032960 0.265336 0.245003
v 0.032960 0.265336 0.064678
v 0.032810 0.595918 0.435444
v 0.032810 0.595918 0.311691
v 0.032810 0.495952 0.435444
v 0.032810 0.495952 0.311691
v 0.032727 0.540316 0.290656
v 0.032727 0.617951 0.290656
v 0.032727 0.540316 0.219941
v 0.032727 0.617951 0.219941
v 0.464721 0.534735 0.290656
v 0.464721 0.617951 0.290656
v 0.464721 0.534735 0.219941
v 0.464721 0.617951 0.219941
v 0.049381 0.365462 0.041067
v 0.158157 0.365462 0.041067
v 0.049381 0.265496 0.041067
v 0.158157 0.265496 0.041067
v 0.034514 0.241749 0.459656
v 0.034514 0.614351 0.459656
v 0.034514 0.241750 0.042433
v 0.034514 0.614351 0.042433
v 0.463401 0.241749 0.459656
v 0.463400 0.614351 0.459656
v 0.463400 0.241750 0.042433
v 0.463400 0.614351 0.042433
v 0.034514 0.614351 0.042433
v 0.034514 0.241750 0.042433
v 0.463400 0.614351 0.042433
v 0.463400 0.241750 0.042433
v 0.034420 0.614301 0.248750
v 0.463307 0.614301 0.248750
v 0.034420 0.614301 0.043674
v 0.463307 0.614301 0.043674
v 0.036084 0.614850 0.458939
v 0.464970 0.614850 0.458939
v 0.036084 0.614850 0.253863
v 0.464970 0.614850 0.253863
v 0.463000 0.471483 -0.134814
v 0.463000 0.471483 -0.315140
v 0.463000 0.416956 -0.134814
v 0.463000 0.416956 -0.315140
v 0.338488 0.377555 -0.020784
v 0.447264 0.377555 -0.020784
v 0.338488 0.277589 -0.020784
v 0.447264 0.277589 -0.020784
v 0.030400 0.325202 -0.237230
v 0.030400 0.325202 -0.417556
v 0.030400 0.270675 -0.237230
v 0.030400 0.270675 -0.417556
v 0.030250 0.601257 -0.046790
v 0.030250 0.601257 -0.170542
v 0.030250 0.501291 -0.046790
v 0.030250 0.501291 -0.170543
v 0.030167 0.545656 -0.191577
v 0.030167 0.623290 -0.191577
v 0.030167 0.545656 -0.262293
v 0.030167 0.623290 -0.262293
v 0.462161 0.540074 -0.191577
v 0.462161 0.623290 -0.191577
v 0.462161 0.540074 -0.262293
v 0.462161 0.623290 -0.262293
v 0.046821 0.370801 -0.441167
v 0.155597 0.370801 -0.441167
v 0.046821 0.270835 -0.441167
v 0.155597 0.270835 -0.441167
v 0.031954 0.247089 -0.022578
v 0.031954 0.619690 -0.022578
v 0.031954 0.247089 -0.439801
v 0.031954 0.619690 -0.439801
v 0.460841 0.247089 -0.022578
v 0.460841 0.619690 -0.022578
v 0.460841 0.247089 -0.439801
v 0.460841 0.619690 -0.439801
v 0.031954 0.619690 -0.439801
v 0.031954 0.247089 -0.439801
v 0.460841 0.619690 -0.439801
v 0.460841 0.247089 -0.439801
v 0.031860 0.619640 -0.233483
v 0.460747 0.619640 -0.233483
v 0.031860 0.619640 -0.438559
v 0.460747 0.619640 -0.438559
v 0.033524 0.620189 -0.023295
v 0.462410 0.620189 -0.023295
v 0.033524 0.620189 -0.228370
v 0.462410 0.620189 -0.228370
v -0.010569 0.477899 -0.141282
v -0.010569 0.477899 -0.321608
v -0.010569 0.423372 -0.141282
v -0.010569 0.423372 -0.321608
v -0.135080 0.383971 -0.027252
v -0.026305 0.383971 -0.027252
v -0.135080 0.284005 -0.027252
v -0.026305 0.284005 -0.027252
v -0.443169 0.331619 -0.243698
v -0.443169 0.331619 -0.424024
v -0.443169 0.277092 -0.243698
v -0.443169 0.277092 -0.424024
v -0.443318 0.607674 -0.053258
v -0.443318 0.607674 -0.177011
v -0.443318 0.507708 -0.053258
v -0.443318 0.507708 -0.177011
v -0.443402 0.552072 -0.198045
v -0.443402 0.629706 -0.198045
v -0.443402 0.552072 -0.268761
v -0.443402 0.629706 -0.268761
v -0.011407 0.546490 -0.198045
v -0.011407 0.629706 -0.198045
v -0.011407 0.546490 -0.268761
v -0.011407 0.629706 -0.268761
v -0.426747 0.377217 -0.447635
v -0.317971 0.377217 -0.447635
v -0.426747 0.277251 -0.447635
v -0.317971 0.277251 -0.447635
v -0.441614 0.253505 -0.029046
v -0.441614 0.626106 -0.029046
v -0.441614 0.253505 -0.446269
v -0.441614 0.626106 -0.446269
v -0.012728 0.253505 -0.029046
v -0.012728 0.626106 -0.029046
v -0.012728 0.253505 -0.446269
v -0.012728 0.626106 -0.446269
v -0.441614 0.626106 -0.446269
v -0.441614 0.253505 -0.446269
v -0.012728 0.626106 -0.446269
v -0.012728 0.253505 -0.446269
v -0.441708 0.626056 -0.239951
v -0.012822 0.626056 -0.239951
v -0.441708 0.626056 -0.445028
v -0.012822 0.626056 -0.445028
v -0.440044 0.626605 -0.029763
v -0.011158 0.626605 -0.029763
v -0.440044 0.626605 -0.234838
v -0.011158 0.626605 -0.234838
v -0.487169 0.008908 -0.491278
v -0.487169 0.030079 -0.491278
v -0.487169 0.008907 0.500482
v -0.487169 0.030079 0.500482
v -0.197556 0.008908 -0.491278
v -0.197556 0.030079 -0.491278
v -0.197556 0.008907 0.500482
v -0.197556 0.030079 0.500482
v 0.512518 0.035958 -0.492993
v 0.512518 0.035958 -0.341428
v -0.486644 0.035958 -0.341428
v -0.486644 0.035958 -0.492993
v 0.512518 0.218034 -0.492993
v 0.512518 0.218034 -0.341428
v -0.486644 0.218034 -0.341428
v -0.486644 0.218034 -0.492993
v 0.512831 0.030211 0.348767
v 0.512831 0.030211 0.500331
v -0.486331 0.030211 0.500331
v -0.486331 0.030211 0.348767
v 0.512831 0.212287 0.348767
v 0.512831 0.212287 0.500331
v -0.486331 0.212287 0.500331
v -0.486331 0.212287 0.348767
v 0.406743 0.219101 0.503097
v 0.406743 0.244507 0.503097
v 0.406743 0.219101 -0.495252
v 0.406743 0.244507 -0.495252
v 0.511004 0.219101 0.503097
v 0.511004 0.244507 0.503097
v 0.511004 0.219101 -0.495252
v 0.511004 0.244507 -0.495252
v 0.252405 0.220083 0.503287
v 0.252405 0.245489 0.503287
v 0.252405 0.220083 -0.495063
v 0.252405 0.245489 -0.495063
v 0.356665 0.220083 0.503287
v 0.356665 0.245489 0.503287
v 0.356665 0.220083 -0.495063
v 0.356665 0.245489 -0.495063
v 0.099028 0.220859 0.502897
v 0.099028 0.246265 0.502897
v 0.099028 0.220859 -0.495453
v 0.099028 0.246265 -0.495453
v 0.203288 0.220859 0.502897
v 0.203288 0.246265 0.502897
v 0.203288 0.220859 -0.495453
v 0.203288 0.246265 -0.495453
v -0.053575 0.219967 0.503508
v -0.053575 0.245373 0.503508
v -0.053575 0.219967 -0.494841
v -0.053575 0.245373 -0.494841
v 0.050686 0.219967 0.503508
v 0.050686 0.245373 0.503508
v 0.050686 0.219967 -0.494841
v 0.050686 0.245373 -0.494841
v -0.200440 0.220249 0.502641
v -0.200440 0.245654 0.502641
v -0.200440 0.220249 -0.495709
v -0.200440 0.245655 -0.495709
v -0.096180 0.220249 0.502641
v -0.096180 0.245654 0.502641
v -0.096180 0.220249 -0.495709
v -0.096180 0.245655 -0.495709
v -0.337527 0.219279 0.502541
v -0.337527 0.244685 0.502541
v -0.337527 0.219279 -0.495808
v -0.337527 0.244685 -0.495808
v -0.233267 0.219279 0.502541
v -0.233267 0.244685 0.502541
v -0.233267 0.219279 -0.495808
v -0.233267 0.244685 -0.495808
v 0.221130 0.005314 -0.486008
v 0.221130 0.026486 -0.486008
v 0.221130 0.005314 0.495867
v 0.221130 0.026486 0.495867
v 0.510742 0.005314 -0.486008
v 0.510742 0.026486 -0.486008
v 0.510742 0.005314 0.495867
v 0.510742 0.026486 0.495867
v -0.486334 0.219915 0.504192
v -0.486334 0.245321 0.504192
v -0.486334 0.219916 -0.494158
v -0.486334 0.245322 -0.494158
v -0.382074 0.219915 0.504192
v -0.382074 0.245321 0.504192
v -0.382074 0.219916 -0.494158
v -0.382074 0.245322 -0.494158
v 0.512540 0.036489 -0.073292
v 0.512540 0.036489 0.078272
v -0.486622 0.036489 0.078272
v -0.486622 0.036489 -0.073292
v 0.512540 0.218566 -0.073292
v 0.512540 0.218566 0.078272
v -0.486622 0.218566 0.078272
v -0.486622 0.218566 -0.073292
vn -1.0000 0.0000 0.0000
vn 0.0000 0.0000 -1.0000
vn 0.0000 0.0000 1.0000
vn 1.0000 0.0000 0.0000
vn 0.0000 -1.0000 -0.0000
vn 0.0000 1.0000 0.0000
usemtl Material.003
s 1
f 1//1 2//1 4//1 3//1
f 5//2 6//2 8//2 7//2
f 9//1 10//1 12//1 11//1
f 13//1 14//1 16//1 15//1
f 25//2 26//2 28//2 27//2
f 49//1 50//1 52//1 51//1
f 53//2 54//2 56//2 55//2
f 57//1 58//1 60//1 59//1
f 61//1 62//1 64//1 63//1
f 73//2 74//2 76//2 75//2
f 97//1 98//1 100//1 99//1
f 101//2 102//2 104//2 103//2
f 105//1 106//1 108//1 107//1
f 109//1 110//1 112//1 111//1
f 121//2 122//2 124//2 123//2
f 145//1 146//1 148//1 147//1
f 149//2 150//2 152//2 151//2
f 153//1 154//1 156//1 155//1
f 157//1 158//1 160//1 159//1
f 169//2 170//2 172//2 171//2
f 193//1 194//1 196//1 195//1
f 197//2 198//2 200//2 199//2
f 201//1 202//1 204//1 203//1
f 205//1 206//1 208//1 207//1
f 217//2 218//2 220//2 219//2
f 241//1 242//1 244//1 243//1
f 245//2 246//2 248//2 247//2
f 249//1 250//1 252//1 251//1
f 253//1 254//1 256//1 255//1
f 265//2 266//2 268//2 267//2
f 289//1 290//1 292//1 291//1
f 293//2 294//2 296//2 295//2
f 297//1 298//1 300//1 299//1
f 301//1 302//1 304//1 303//1
f 313//2 314//2 316//2 315//2
f 337//1 338//1 340//1 339//1
f 341//2 342//2 344//2 343//2
f 345//1 346//1 348//1 347//1
f 349//1 350//1 352//1 351//1
f 361//2 362//2 364//2 363//2
usemtl Material_#44.001
f 37//3 32//3 31//3 38//3
f 32//2 36//2 35//2 31//2
f 36//3 39//3 40//3 35//3
f 34//3 30//3 29//3 33//3
f 38//3 31//3 35//3 40//3
f 30//1 37//1 38//1 29//1
f 39//4 34//4 33//4 40//4
f 29//5 38//5 40//5 33//5
f 41//6 42//6 44//6 43//6
f 45//6 46//6 48//6 47//6
f 85//3 80//3 79//3 86//3
f 80//2 84//2 83//2 79//2
f 84//3 87//3 88//3 83//3
f 82//3 78//3 77//3 81//3
f 86//3 79//3 83//3 88//3
f 78//1 85//1 86//1 77//1
f 87//4 82//4 81//4 88//4
f 77//5 86//5 88//5 81//5
f 89//6 90//6 92//6 91//6
f 93//6 94//6 96//6 95//6
f 133//3 128//3 127//3 134//3
f 128//2 132//2 131//2 127//2
f 132//3 135//3 136//3 131//3
f 130//3 126//3 125//3 129//3
f 134//3 127//3 131//3 136//3
f 126//1 133//1 134//1 125//1
f 135//4 130//4 129//4 136//4
f 125//5 134//5 136//5 129//5
f 137//6 138//6 140//6 139//6
f 141//6 142//6 144//6 143//6
f 181//3 176//3 175//3 182//3
f 176//2 180//2 179//2 175//2
f 180//3 183//3 184//3 179//3
f 178//3 174//3 173//3 177//3
f 182//3 175//3 179//3 184//3
f 174//1 181//1 182//1 173//1
f 183//4 178//4 177//4 184//4
f 173//5 182//5 184//5 177//5
f 185//6 186//6 188//6 187//6
f 189//6 190//6 192//6 191//6
f 229//3 224//3 223//3 230//3
f 224//2 228//2 227//2 223//2
f 228//3 231//3 232//3 227//3
f 226//3 222//3 221//3 225//3
f 230//3 223//3 227//3 232//3
f 222//1 229//1 230//1 221//1
f 231//4 226//4 225//4 232//4
f 221//5 230//5 232//5 225//5
f 233//6 234//6 236//6 235//6
f 237//6 238//6 240//6 239//6
f 277//3 272//3 271//3 278//3
f 272//2 276//2 275//2 271//2
f 276//3 279//3 280//3 275//3
f 274//3 270//3 269//3 273//3
f 278//3 271//3 275//3 280//3
f 270//1 277//1 278//1 269//1
f 279//4 274//4 273//4 280//4
f 269//5 278//5 280//5 273//5
f 281//6 282//6 284//6 283//6
f 285//6 286//6 288//6 287//6
f 325//3 320//3 319//3 326//3
f 320//2 324//2 323//2 319//2
f 324//3 327//3 328//3 323//3
f 322//3 318//3 317//3 321//3
f 326//3 319//3 323//3 328//3
f 318//1 325//1 326//1 317//1
f 327//4 322//4 321//4 328//4
f 317//5 326//5 328//5 321//5
f 329//6 330//6 332//6 331//6
f 333//6 334//6 336//6 335//6
f 373//3 368//3 367//3 374//3
f 368//2 372//2 371//2 367//2
f 372//3 375//3 376//3 371//3
f 370//3 366//3 365//3 369//3
f 374//3 367//3 371//3 376//3
f 366//1 373//1 374//1 365//1
f 375//4 370//4 369//4 376//4
f 365//5 374//5 376//5 369//5
f 377//6 378//6 380//6 379//6
f 381//6 382//6 384//6 383//6
usemtl Material.005
f 18//1 20//1 19//1 17//1
f 24//4 22//4 21//4 23//4
f 22//6 24//6 20//6 18//6
f 66//1 68//1 67//1 65//1
f 72//4 70//4 69//4 71//4
f 70//6 72//6 68//6 66//6
f 114//1 116//1 115//1 113//1
f 120//4 118//4 117//4 119//4
f 118//6 120//6 116//6 114//6
f 162//1 164//1 163//1 161//1
f 168//4 166//4 165//4 167//4
f 166//6 168//6 164//6 162//6
f 210//1 212//1 211//1 209//1
f 216//4 214//4 213//4 215//4
f 214//6 216//6 212//6 210//6
f 258//1 260//1 259//1 257//1
f 264//4 262//4 261//4 263//4
f 262//6 264//6 260//6 258//6
f 306//1 308//1 307//1 305//1
f 312//4 310//4 309//4 311//4
f 310//6 312//6 308//6 306//6
f 354//1 356//1 355//1 353//1
f 360//4 358//4 357//4 359//4
f 358//6 360//6 356//6 354//6
usemtl Material.006
f 386//4 388//4 387//4 385//4
f 388//2 392//2 391//2 387//2
f 392//1 390//1 389//1 391//1
f 390//3 386//3 385//3 389//3
f 385//6 387//6 391//6 389//6
f 390//5 392//5 388//5 386//5
f 393//5 394//5 395//5 396//5
f 397//6 400//6 399//6 398//6
f 393//4 397//4 398//4 394//4
f 394//3 398//3 399//3 395//3
f 395//1 399//1 400//1 396//1
f 397//2 393//2 396//2 400//2
f 401//5 402//5 403//5 404//5
f 405//6 408//6 407//6 406//6
f 401//4 405//4 406//4 402//4
f 402//3 406//3 407//3 403//3
f 403//1 407//1 408//1 404//1
f 405//2 401//2 404//2 408//2
f 410//1 412//1 411//1 409//1
f 412//2 416//2 415//2 411//2
f 416//4 414//4 413//4 415//4
f 414//3 410//3 409//3 413//3
f 409//5 411//5 415//5 413//5
f 414//6 416//6 412//6 410//6
f 418//1 420//1 419//1 417//1
f 420//2 424//2 423//2 419//2
f 424//4 422//4 421//4 423//4
f 422//3 418//3 417//3 421//3
f 417//5 419//5 423//5 421//5
f 422//6 424//6 420//6 418//6
f 426//1 428//1 427//1 425//1
f 428//2 432//2 431//2 427//2
f 432//4 430//4 429//4 431//4
f 430//3 426//3 425//3 429//3
f 425//5 427//5 431//5 429//5
f 430//6 432//6 428//6 426//6
f 434//1 436//1 435//1 433//1
f 436//2 440//2 439//2 435//2
f 440//4 438//4 437//4 439//4
f 438//3 434//3 433//3 437//3
f 433//5 435//5 439//5 437//5
f 438//6 440//6 436//6 434//6
f 442//1 444//1 443//1 441//1
f 444//2 448//2 447//2 443//2
f 448//4 446//4 445//4 447//4
f 446//3 442//3 441//3 445//3
f 441//5 443//5 447//5 445//5
f 446//6 448//6 444//6 442//6
f 450//1 452//1 451//1 449//1
f 452//2 456//2 455//2 451//2
f 456//4 454//4 453//4 455//4
f 454//3 450//3 449//3 453//3
f 449//5 451//5 455//5 453//5
f 454//6 456//6 452//6 450//6
f 458//4 460//4 459//4 457//4
f 460//2 464//2 463//2 459//2
f 464//1 462//1 461//1 463//1
f 462//3 458//3 457//3 461//3
f 457//6 459//6 463//6 461//6
f 462//5 464//5 460//5 458//5
f 466//1 468//1 467//1 465//1
f 468//2 472//2 471//2 467//2
f 472//4 470//4 469//4 471//4
f 470//3 466//3 465//3 469//3
f 465//5 467//5 471//5 469//5
f 470//6 472//6 468//6 466//6
f 473//5 474//5 475//5 476//5
f 477//6 480//6 479//6 478//6
f 473//4 477//4 478//4 474//4
f 474//3 478//3 479//3 475//3
f 475//1 479//1 480//1 476//1
f 477//2 473//2 476//2 480//2
